<svg width="950" height="700" viewBox="0 0 950 700" xmlns="http://www.w3.org/2000/svg" font-family="Arial, sans-serif" font-size="12px">
  
  <defs>
    <linearGradient id="skyGradient" x1="0%" y1="0%" x2="0%" y2="100%">
      <stop offset="0%" style="stop-color:#cceeff;stop-opacity:1" />
      <stop offset="100%" style="stop-color:#e6f7ff;stop-opacity:1" />
    </linearGradient>
    <linearGradient id="oceanGradient" x1="0%" y1="0%" x2="0%" y2="100%">
      <stop offset="0%" style="stop-color:#66b2ff;stop-opacity:1" />
      <stop offset="100%" style="stop-color:#007acc;stop-opacity:1" />
    </linearGradient>
    <linearGradient id="landGradient" x1="0%" y1="0%" x2="0%" y2="100%">
      <stop offset="0%" style="stop-color:#a0d9a0;stop-opacity:1" />
      <stop offset="100%" style="stop-color:#82c682;stop-opacity:1" />
    </linearGradient>
    <linearGradient id="soilGradient" x1="0%" y1="0%" x2="0%" y2="100%">
      <stop offset="0%" style="stop-color:#e0ac69;stop-opacity:1" />
      <stop offset="100%" style="stop-color:#c28a41;stop-opacity:1" />
    </linearGradient>
    <linearGradient id="deepOceanGradient" x1="0%" y1="0%" x2="0%" y2="100%">
      <stop offset="0%" style="stop-color:#005c99;stop-opacity:1" />
      <stop offset="100%" style="stop-color:#003d66;stop-opacity:1" />
    </linearGradient>

    <filter id="dropshadow" height="130%">
      <feGaussianBlur in="SourceAlpha" stdDeviation="1.5"/>
      <feOffset dx="1" dy="1" result="offsetblur"/>
      <feComponentTransfer>
        <feFuncA type="linear" slope="0.3"/>
      </feComponentTransfer>
      <feMerge> 
        <feMergeNode/>
        <feMergeNode in="SourceGraphic"/>
      </feMerge>
    </filter>

    <marker id="arrow-black" viewBox="0 0 10 10" refX="5" refY="5" markerWidth="6" markerHeight="6" orient="auto-start-reverse">
      <path d="M 0 0 L 10 5 L 0 10 z" fill="black" />
    </marker>
    <marker id="arrow-red" viewBox="0 0 10 10" refX="5" refY="5" markerWidth="6" markerHeight="6" orient="auto-start-reverse">
      <path d="M 0 0 L 10 5 L 0 10 z" fill="red" />
    </marker>
  </defs>

  <rect x="0" y="0" width="950" height="200" fill="url(#skyGradient)" />
  <path d="M 0 320 L 450 320 L 500 380 L 950 380 L 950 680 L 0 680 Z" fill="url(#deepOceanGradient)"/>
  <path d="M 0 320 L 450 320 L 500 380 L 950 380 L 950 680 L 0 680 Z" fill="url(#oceanGradient)" opacity="0.8"/>
  <path d="M 0 320 Q 150 250 350 280 L 400 320 Z" fill="url(#landGradient)" />
  <path d="M 0 320 L 0 450 L 250 450 L 300 350 L 400 320 Z" fill="url(#soilGradient)" />

  <rect x="170" y="20" width="600" height="60" fill="white" stroke="black" opacity="0.0" rx="5" ry="5"/>
  <text x="470" y="45" text-anchor="middle" font-weight="bold" filter="url(#dropshadow)">Atmosfæren <tspan fill="black">589</tspan> + <tspan fill="red">240 ± 10</tspan></text>
  <text x="470" y="65" text-anchor="middle" fill="red" filter="url(#dropshadow)">Gjennomsnittlig økning i atmosfæren: 4 (Pg C yr⁻¹)</text>

  <rect x="50" y="290" width="200" height="70" fill="white" stroke="black" opacity="0.0" rx="5" ry="5"/>
  <text x="150" y="305" text-anchor="middle" font-weight="bold" filter="url(#dropshadow)">Vegetasjon: 450-650</text>
  <text x="150" y="325" text-anchor="middle" fill="red" font-weight="bold" filter="url(#dropshadow)">-30 ± 45</text>
  <text x="150" y="345" text-anchor="middle" font-weight="bold" filter="url(#dropshadow)">Jordsmonn: 1500-2400</text>

  <rect x="50" y="380" width="100" height="40" fill="white" stroke="black" opacity="0.0" rx="5" ry="5"/>
  <text x="100" y="395" text-anchor="middle" font-weight="bold" filter="url(#dropshadow)">Permafrost</text>
  <text x="100" y="415" text-anchor="middle" font-weight="bold" filter="url(#dropshadow)">~1700</text>

  <rect x="450" y="340" width="150" height="40" fill="white" stroke="black" opacity="0.0" rx="5" ry="5"/>
  <text x="525" y="355" text-anchor="middle" font-weight="bold" filter="url(#dropshadow)">Havoverflaten</text>
  <text x="525" y="375" text-anchor="middle" font-weight="bold" filter="url(#dropshadow)">900</text>

  <rect x="450" y="480" width="200" height="55" fill="white" stroke="black" opacity="0.0" rx="5" ry="5"/>
  <text x="550" y="495" text-anchor="middle" font-weight="bold" filter="url(#dropshadow)">Intermediært og</text>
  <text x="550" y="510" text-anchor="middle" font-weight="bold" filter="url(#dropshadow)">dypvann</text>
  <text x="550" y="525" text-anchor="middle" font-weight="bold" filter="url(#dropshadow)">37 100 <tspan fill="red">+ 155 ± 30</tspan></text>
  
  <rect x="500" y="580" width="100" height="40" fill="white" stroke="black" opacity="0.0" rx="5" ry="5"/>
  <text x="550" y="595" text-anchor="middle" font-weight="bold" filter="url(#dropshadow)">Havbunn</text>
  <text x="550" y="615" text-anchor="middle" font-weight="bold" filter="url(#dropshadow)">1750</text>

  <rect x="700" y="370" width="100" height="40" fill="white" stroke="black" opacity="0.0" rx="5" ry="5"/>
  <text x="750" y="385" text-anchor="middle" font-weight="bold" filter="url(#dropshadow)">Marin biota</text>
  <text x="750" y="405" text-anchor="middle" font-weight="bold" filter="url(#dropshadow)">3</text>

  <rect x="700" y="470" width="150" height="55" fill="white" stroke="black" opacity="0.0" rx="5" ry="5"/>
  <text x="775" y="485" text-anchor="middle" font-weight="bold" filter="url(#dropshadow)">Oppløst organisk</text>
  <text x="775" y="500" text-anchor="middle" font-weight="bold" filter="url(#dropshadow)">karbon</text>
  <text x="775" y="515" text-anchor="middle" font-weight="bold" filter="url(#dropshadow)">700</text>

  <rect x="730" y="150" width="150" height="90" fill="white" stroke="black" opacity="0.0" rx="5" ry="5"/>
  <text x="805" y="165" text-anchor="middle" font-weight="bold" filter="url(#dropshadow)">Fossilt brensel</text>
  <text x="805" y="180" text-anchor="middle" filter="url(#dropshadow)">Gass: 383-1135</text>
  <text x="805" y="195" text-anchor="middle" filter="url(#dropshadow)">Olje: 173-264</text>
  <text x="805" y="210" text-anchor="middle" filter="url(#dropshadow)">Kull: 466-541</text>
  <text x="805" y="225" text-anchor="middle" fill="red" font-weight="bold" filter="url(#dropshadow)">-365 ± 30</text>
  
  <g transform="translate(750, 250)">
    <rect x="0" y="20" width="80" height="50" fill="#d3d3d3" filter="url(#dropshadow)" />
    <rect x="10" y="0" width="15" height="70" fill="#a9a9a9" filter="url(#dropshadow)" />
    <path d="M 17.5 0 Q 25 -10 35 -5 Q 40 -15 50 -10" stroke="#888" stroke-width="3" fill="none"/>
    <polygon points="0,20 40,0 80,20" fill="#808080" filter="url(#dropshadow)"/>
  </g>

  <g transform="translate(100, 200)">
    <path d="M -20 70 L 20 70 L 0 40 Z" fill="#339933" filter="url(#dropshadow)"/>
    <path d="M -25 50 L 25 50 L 0 10 Z" fill="#339933" filter="url(#dropshadow)"/>
    <rect x="-5" y="70" width="10" height="20" fill="#8b4513" filter="url(#dropshadow)"/>
  </g>
  <g transform="translate(150, 210)">
    <path d="M -15 60 L 15 60 L 0 35 Z" fill="#228b22" filter="url(#dropshadow)"/>
    <path d="M -20 45 L 20 45 L 0 10 Z" fill="#228b22" filter="url(#dropshadow)"/>
    <rect x="-4" y="60" width="8" height="15" fill="#8b4513" filter="url(#dropshadow)"/>
  </g>

  <path d="M 300 280 L 350 250 L 400 280 Z" fill="#a9a9a9" filter="url(#dropshadow)"/>
  <path d="M 345 250 Q 350 230 355 250" fill="none" stroke="#666" stroke-width="2" filter="url(#dropshadow)"/>
  <path d="M 340 240 Q 350 220 360 240" fill="none" stroke="#666" stroke-width="2" filter="url(#dropshadow)"/>

  <path d="M 80 220 L 80 100" stroke="black" marker-end="url(#arrow-black)"/>
  <path d="M 100 220 L 100 100" stroke="red" marker-end="url(#arrow-red)"/>
  <text x="90" y="160" text-anchor="middle" transform="rotate(90 90 160)">Respirasjon</text>
  <text x="70" y="150">118.7</text>
  <text x="100" y="150" fill="red">107.2 + 11.6</text>

  <path d="M 200 100 L 200 220" stroke="black" marker-end="url(#arrow-black)"/>
  <path d="M 230 100 L 230 220" stroke="red" marker-end="url(#arrow-red)"/>
  <text x="215" y="160" text-anchor="middle" transform="rotate(-90 215 160)">Fotosyntesen</text>
  <text x="180" y="150">123</text>
  <text x="230" y="150" fill="red">108.9 + 14.1</text>
  
  <path d="M 30 270 L 30 100" stroke="black" marker-end="url(#arrow-black)"/>
  <text x="40" y="200" text-anchor="middle" transform="rotate(90 40 200)">Forvitring</text>
  <text x="10" y="180">0.3</text>
  
  <path d="M 280 260 L 280 100" stroke="black" marker-end="url(#arrow-black)"/>
  <text x="290" y="180">1.0</text>
  <text x="300" y="220" text-anchor="middle" transform="rotate(90 300 220)">Avgassing fra ferskvann</text>

  <path d="M 370 240 L 370 100" stroke="black" marker-end="url(#arrow-black)"/>
  <text x="380" y="170">0.1</text>
  <text x="350" y="220">Vulkanisme</text>
  
  <path d="M 420 240 L 420 100" stroke="red" marker-end="url(#arrow-red)"/>
  <text x="440" y="170" fill="red">1.1 ± 0.8</text>
  <text x="440" y="220" fill="red" font-size="10px">Endring av</text>
  <text x="440" y="232" fill="red" font-size="10px">jordoverflaten</text>

  <path d="M 500 100 L 500 300" stroke="black" marker-end="url(#arrow-black)"/>
  <text x="485" y="200">60.7</text>
  <path d="M 540 300 L 540 100" stroke="black" marker-end="url(#arrow-black)"/>
  <text x="550" y="200">60</text>
  <path d="M 580 100 L 580 300" stroke="red" marker-end="url(#arrow-red)"/>
  <text x="590" y="200" fill="red">20</text>
  <path d="M 620 100 L 620 300" stroke="red" marker-end="url(#arrow-red)"/>
  <text x="630" y="200" fill="red">17.7</text>

  <path d="M 780 240 L 780 100" stroke="red" marker-end="url(#arrow-red)"/>
  <text x="790" y="130" fill="red">7.8 ± 0.6</text>
  <path d="M 780 245 C 760 270 740 280 740 300" stroke="red" stroke-width="2" marker-end="url(#arrow-red)"/>
  
  <path d="M 280 290 Q 350 320 420 350" fill="none" stroke="black" marker-end="url(#arrow-black)"/>
  <text x="350" y="300">Elver</text>
  <text x="360" y="330">0.9</text>

  <path d="M 250 345 C 280 360 320 380 350 400" stroke="black" marker-end="url(#arrow-black)"/>
  <text x="300" y="360">1.7</text>

  <path d="M 525 380 L 525 470" stroke="black" marker-end="url(#arrow-black)"/>
  <text x="500" y="430">90.2</text>
  <path d="M 575 470 L 575 380" stroke="black" marker-end="url(#arrow-black)"/>
  <text x="585" y="430">101</text>
  
  <path d="M 610 365 C 650 370 680 380 690 385" stroke="black" marker-end="url(#arrow-black)" stroke-dasharray="4"/>
  <text x="650" y="375">50</text>
  <path d="M 690 400 C 680 405 650 405 610 400" stroke="black" marker-end="url(#arrow-black)" stroke-dasharray="4"/>
  <text x="650" y="415">37</text>
  
  <path d="M 725 410 L 725 460" stroke="black" marker-end="url(#arrow-black)"/>
  <text x="735" y="440">2</text>
  
  <path d="M 670 490 L 690 490" stroke="black" marker-end="url(#arrow-black)"/>
  <text x="675" y="485">2</text>
  <path d="M 690 500 L 670 500" stroke="black" marker-end="url(#arrow-black)"/>
  <text x="675" y="515">11</text>
  
  <path d="M 660 515 C 670 470 680 440 680 405" stroke="black" marker-end="url(#arrow-black)"/>
  <text x="645" y="455">2</text>

  <path d="M 400 380 L 450 450" stroke="black" marker-end="url(#arrow-black)"/>
  <text x="400" y="420">0.2</text>
  <text x="370" y="370" font-size="10px">jordoverflaten</text>
  
  <path d="M 660 535 C 630 550 610 560 600 570" stroke="black" marker-end="url(#arrow-black)"/>
  <text x="635" y="560">0.2</text>

  <text x="20" y="650" font-size="11px" font-weight="bold">Reservoarstørrelse i Pg med karbon</text>
  <text x="20" y="670" font-size="11px" fill="red" font-weight="bold">Utveksling av mengde karbon i Pg pr år</text>

</svg>
