<svg width="900" height="650" viewBox="0 0 900 650" xmlns="http://www.w3.org/2000/svg" font-family="Arial, sans-serif" font-size="12px">
  
  <defs>
    <marker id="arrow-black" viewBox="0 0 10 10" refX="5" refY="5" markerWidth="6" markerHeight="6" orient="auto-start-reverse">
      <path d="M 0 0 L 10 5 L 0 10 z" fill="black" />
    </marker>
    <marker id="arrow-red" viewBox="0 0 10 10" refX="5" refY="5" markerWidth="6" markerHeight="6" orient="auto-start-reverse">
      <path d="M 0 0 L 10 5 L 0 10 z" fill="red" />
    </marker>
  </defs>

  <rect x="0" y="0" width="900" height="200" fill="#cceeff" /> <rect x="0" y="320" width="900" height="330" fill="#e0ac69" /> <path d="M 0 320 L 400 320 L 450 380 L 900 380 L 900 650 L 0 650 Z" fill="#66b2ff"/> <path d="M 0 320 L 0 450 L 200 450 L 250 350 L 400 320 Z" fill="#ffcc99" />
  <path d="M 0 320 L 400 320 L 350 250 L 300 280 L 250 250 L 200 280 L 150 230 L 100 270 L 50 240 L 0 320 Z" fill="#66cc66" />

  <g transform="translate(100, 200)">
    <path d="M -20 70 L 20 70 L 0 40 Z" fill="#339933" />
    <path d="M -25 50 L 25 50 L 0 10 Z" fill="#339933" />
    <path d="M -5 70 L 5 70 L 5 90 L -5 90 Z" fill="#8b4513" />
  </g>
  <g transform="translate(150, 210)">
    <path d="M -15 60 L 15 60 L 0 35 Z" fill="#228b22" />
    <path d="M -20 45 L 20 45 L 0 10 Z" fill="#228b22" />
    <path d="M -4 60 L 4 60 L 4 75 L -4 75 Z" fill="#8b4513" />
  </g>
   <path d="M 300 280 L 350 250 L 400 280 Z" fill="#a9a9a9" />
  <path d="M 345 250 Q 350 230 355 250" fill="none" stroke="#666" stroke-width="2"/>
  <path d="M 340 240 Q 350 220 360 240" fill="none" stroke="#666" stroke-width="2"/>

  <g transform="translate(750, 250)">
    <rect x="0" y="20" width="80" height="50" fill="#d3d3d3" />
    <rect x="10" y="0" width="15" height="70" fill="#a9a9a9" />
    <path d="M 17.5 0 Q 25 -10 35 -5 Q 40 -15 50 -10" stroke="#888" stroke-width="3" fill="none"/>
    <polygon points="0,20 40,0 80,20" fill="#808080"/>
  </g>

  <rect x="150" y="20" width="600" height="60" fill="white" stroke="black" opacity="0.8"/>
  <text x="450" y="45" text-anchor="middle" font-weight="bold">Atmosfæren: 589 + 240 ± 10</text>
  <text x="450" y="65" text-anchor="middle" fill="red">Gjennomsnittlig økning i atmosfæren: 4 (Pg C yr⁻¹)</text>

  <rect x="50" y="290" width="200" height="55" fill="white" stroke="black" opacity="0.8"/>
  <text x="150" y="305" text-anchor="middle">Vegetasjon: 450-650</text>
  <text x="150" y="320" text-anchor="middle" fill="red">-30 ± 45</text>
  <text x="150" y="335" text-anchor="middle">Jordsmonn: 1500-2400</text>

  <rect x="50" y="370" width="100" height="25" fill="white" stroke="black" opacity="0.8"/>
  <text x="100" y="387" text-anchor="middle">Permafrost</text>
  <text x="100" y="402" text-anchor="middle">~1700</text>


  <rect x="730" y="160" width="150" height="80" fill="white" stroke="black" opacity="0.8"/>
  <text x="805" y="175" text-anchor="middle" font-weight="bold">Fossilt brensel</text>
  <text x="805" y="192" text-anchor="middle">Gass: 383-1135</text>
  <text x="805" y="207" text-anchor="middle">Olje: 173-264</text>
  <text x="805" y="222" text-anchor="middle">Kull: 466-541</text>
  
  <rect x="450" y="340" width="150" height="25" fill="white" stroke="black" opacity="0.8"/>
  <text x="525" y="357" text-anchor="middle">Havoverflaten</text>
  <text x="525" y="372" text-anchor="middle" font-weight="bold">900</text>

  <rect x="450" y="480" width="200" height="45" fill="white" stroke="black" opacity="0.8"/>
  <text x="550" y="495" text-anchor="middle">Intermediært og</text>
  <text x="550" y="510" text-anchor="middle">dypvann</text>
  <text x="550" y="525" text-anchor="middle" font-weight="bold">37 100 <tspan fill="red">+ 155 ± 30</tspan></text>
  
  <rect x="500" y="580" width="100" height="25" fill="white" stroke="black" opacity="0.8"/>
  <text x="550" y="597" text-anchor="middle">Havbunn</text>
  <text x="550" y="612" text-anchor="middle" font-weight="bold">1750</text>

  <rect x="700" y="370" width="100" height="25" fill="white" stroke="black" opacity="0.8"/>
  <text x="750" y="387" text-anchor="middle">Marin biota</text>
  <text x="750" y="402" text-anchor="middle" font-weight="bold">3</text>

  <rect x="700" y="470" width="150" height="40" fill="white" stroke="black" opacity="0.8"/>
  <text x="775" y="485" text-anchor="middle">Oppløst organisk</text>
  <text x="775" y="500" text-anchor="middle">karbon</text>
  <text x="775" y="515" text-anchor="middle" font-weight="bold">700</text>

  <line x1="180" y1="100" x2="180" y2="220" stroke="black" marker-end="url(#arrow-black)"/>
  <line x1="210" y1="220" x2="210" y2="100" stroke="black" marker-end="url(#arrow-black)"/>
  <line x1="230" y1="220" x2="230" y2="100" stroke="red" marker-end="url(#arrow-red)"/>
  <text x="195" y="150" text-anchor="middle" transform="rotate(-90 195 150)">Fotosyntesen</text>
  <text x="170" y="150">123</text>
  <text x="220" y="150" fill="red">108.9 + 14.1</text>
  
  <line x1="80" y1="220" x2="80" y2="100" stroke="black" marker-end="url(#arrow-black)"/>
  <line x1="100" y1="220" x2="100" y2="100" stroke="red" marker-end="url(#arrow-red)"/>
  <text x="90" y="160" text-anchor="middle" transform="rotate(90 90 160)">Respirasjon</text>
  <text x="70" y="150">118.7</text>
  <text x="100" y="150" fill="red">107.2 + 11.6</text>

  <line x1="30" y1="270" x2="30" y2="100" stroke="black" marker-end="url(#arrow-black)"/>
  <text x="40" y="200" text-anchor="middle" transform="rotate(90 40 200)">Forvitring</text>
  <text x="10" y="180">0.3</text>
  
  <line x1="280" y1="260" x2="280" y2="100" stroke="black" marker-end="url(#arrow-black)"/>
  <text x="290" y="180">1.0</text>
  <text x="300" y="220" text-anchor="middle" transform="rotate(90 300 220)">Avgassing fra ferskvann</text>

  <line x1="370" y1="240" x2="370" y2="100" stroke="black" marker-end="url(#arrow-black)"/>
  <text x="380" y="170">0.1</text>
  <text x="350" y="220">Vulkanisme</text>
  
  <line x1="420" y1="240" x2="420" y2="100" stroke="red" marker-end="url(#arrow-red)"/>
  <text x="440" y="170" fill="red">1.1 ± 0.8</text>
  <text x="440" y="220" fill="red" font-size="10px">Endring av</text>
  <text x="440" y="232" fill="red" font-size="10px">jordoverflaten</text>


  <line x1="500" y1="100" x2="500" y2="300" stroke="black" marker-end="url(#arrow-black)"/>
  <text x="485" y="200">60.7</text>
  <line x1="540" y1="300" x2="540" y2="100" stroke="black" marker-end="url(#arrow-black)"/>
  <text x="550" y="200">60</text>
  <line x1="580" y1="100" x2="580" y2="300" stroke="red" marker-end="url(#arrow-red)"/>
  <text x="590" y="200" fill="red">20</text>
   <line x1="620" y1="100" x2="620" y2="300" stroke="red" marker-end="url(#arrow-red)"/>
  <text x="630" y="200" fill="red">17.7</text>

  <line x1="780" y1="240" x2="780" y2="100" stroke="red" marker-end="url(#arrow-red)"/>
  <text x="790" y="130" fill="red">7.8 ± 0.6</text>
  <line x1="780" y1="245" x2="740" y2="300" stroke="red" stroke-width="2"/>
  <text x="710" y="280" fill="red">-365 ± 30</text>

  <path d="M 280 290 Q 350 320 420 350" fill="none" stroke="black" marker-end="url(#arrow-black)"/>
  <text x="350" y="300">Elver</text>
  <text x="360" y="330">0.9</text>

  <line x1="250" y1="345" x2="350" y2="400" stroke="black" marker-end="url(#arrow-black)"/>
  <text x="300" y="360">1.7</text>

  <line x1="525" y1="380" x2="525" y2="470" stroke="black" marker-end="url(#arrow-black)"/>
  <text x="500" y="430">90.2</text>
  <line x1="575" y1="470" x2="575" y2="380" stroke="black" marker-end="url(#arrow-black)"/>
  <text x="585" y="430">101</text>
  
  <line x1="610" y1="365" x2="690" y2="385" stroke="black" marker-end="url(#arrow-black)" stroke-dasharray="4"/>
  <text x="650" y="375">50</text>
  <line x1="690" y1="400" x2="610" y2="400" stroke="black" marker-end="url(#arrow-black)" stroke-dasharray="4"/>
  <text x="650" y="415">37</text>
  
  <line x1="725" y1="410" x2="725" y2="460" stroke="black" marker-end="url(#arrow-black)"/>
  <text x="735" y="440">2</text>
  
  <line x1="670" y1="490" x2="690" y2="490" stroke="black" marker-end="url(#arrow-black)"/>
  <text x="675" y="485">2</text>
  <line x1="690" y1="500" x2="670" y2="500" stroke="black" marker-end="url(#arrow-black)"/>
  <text x="675" y="515">11</text>
  
  <line x1="660" y1="515" x2="680" y2="405" stroke="black" marker-end="url(#arrow-black)"/>
  <text x="645" y="455">2</text>


  <line x1="400" y1="380" x2="450" y2="450" stroke="black" marker-end="url(#arrow-black)"/>
  <text x="400" y="420">0.2</text>
  <text x="370" y="370" font-size="10px">jordoverflaten</text>
  
  <line x1="660" y1="535" x2="600" y2="570" stroke="black" marker-end="url(#arrow-black)"/>
  <text x="635" y="560">0.2</text>

  <text x="20" y="580" font-size="11px">Reservoarstørrelse i Pg med karbon</text>
  <text x="20" y="600" font-size="11px" fill="red">Utveksling av mengde karbon i Pg pr år</text>

</svg>
